<?xml version="1.0" encoding="iso-8859-1"?>
<!-- Generator: Adobe Illustrator 19.0.0, SVG Export Plug-In . SVG Version: 6.00 Build 0)  -->
<svg version="1.1" id="Layer_1" xmlns="http://www.w3.org/2000/svg" xmlns:xlink="http://www.w3.org/1999/xlink" x="0px" y="0px"
	 viewBox="0 0 512 512" style="enable-background:new 0 0 512 512;" xml:space="preserve">
<g transform="translate(0 -540.36)">
	<path style="fill:#D9D9D9;" d="M256.013,1052.36c-99.837,0-184.917-63.208-217.361-151.803
		c38.18,81.772,121.129,138.421,217.331,138.421c96.204,0,179.182-56.646,217.361-138.421
		C440.909,989.152,355.851,1052.36,256.013,1052.36L256.013,1052.36z"/>
	<g transform="translate(1351.85 3.178)">
		<path style="fill:#F8F6DE;" d="M-845.233,787.799c0,138.412-112.205,250.617-250.618,250.617s-250.617-112.205-250.617-250.617
			s112.205-250.617,250.617-250.617C-957.438,537.182-845.233,649.387-845.233,787.799L-845.233,787.799z"/>
		<g>
			<path style="fill:#9ADBB6;" d="M-1331.431,787.799c0,130.107,105.473,235.581,235.58,235.581h0
				c130.108,0,235.581-105.473,235.581-235.58s-105.473-235.58-235.581-235.58C-1225.958,552.219-1331.431,657.692-1331.431,787.799
				C-1331.431,787.799-1331.431,787.799-1331.431,787.799L-1331.431,787.799z"/>
			<g>
				<circle style="fill:#9ADBB6;" cx="-1095.854" cy="787.794" r="235.575"/>
			</g>
		</g>
		<g image-rendering="auto" shape-rendering="auto" color-rendering="auto" color-interpolation="sRGB">
			<path style="fill:#F11A22;" d="M-995.894,574.759c-47.95,15.407-89.598,46.249-117.131,89.267
				c-47.26,73.841-44.013,169.857,8.12,245.151l9.643-6.74c-49.476-71.456-52.452-161.952-7.79-231.734
				c28.221-44.094,72.243-74.766,122.671-87.914C-985.45,579.921-990.625,577.243-995.894,574.759L-995.894,574.759z"/>
			<path style="fill:#F09523;" d="M-980.504,582.718c-50.793,13.239-95.236,44.049-123.815,88.486
				c-45.293,70.425-42.177,162.005,7.778,233.804l9.215-6.466c-47.411-68.143-50.256-154.424-7.464-220.959
				c29.068-45.197,75.637-75.613,128.526-86.372C-970.91,588.213-975.659,585.381-980.504,582.718L-980.504,582.718z"/>
			<path style="fill:#FFCB05;" d="M-965.988,591.407c-53.114,10.565-100.044,40.921-129.371,86.351
				c-42.963,66.553-40.007,153.101,7.372,220.943l8.725-6.139c-44.969-64.39-47.666-145.905-7.084-208.767
				c29.542-45.763,78.15-75.49,132.777-83.507C-957.613,597.194-961.754,594.233-965.988,591.407z"/>
			<path style="fill:#92278F;" d="M-923.295,627.85c-57.38,0.284-110.509,26.979-140.869,72.717
				c-35.522,53.514-33.061,123.139,6.074,177.637l7.1-5.117c-37.157-51.743-39.366-117.147-5.869-167.61
				c30.037-45.252,84.005-71.022,141.764-68.688C-917.751,633.74-920.485,630.759-923.295,627.85L-923.295,627.85z"/>
			<path style="fill:#C8D027;" d="M-953.738,600.168c-54.589,7.995-103.322,37.698-133.031,83.68
				c-40.798,63.144-37.988,145.262,7.002,209.628l8.282-5.832c-42.701-61.092-45.262-138.425-6.728-198.065
				c29.75-46.045,79.86-74.981,135.558-80.381C-946.257,606.077-949.953,603.065-953.738,600.168z"/>
			<path style="fill:#0095DA;" d="M-942.236,609.565c-56.138,5.41-106.825,34.452-137.019,80.958
				c-39.1,60.224-36.404,138.548,6.706,199.926l7.914-5.597c-40.92-58.26-43.37-131.99-6.45-188.855
				c30.154-46.444,82.149-74.641,139.223-77.316C-935.23,615.541-938.69,612.501-942.236,609.565L-942.236,609.565z"/>
			<path style="fill:#2D3192;" d="M-932.144,618.431c-56.84,2.697-108.818,30.709-139.087,77.157
				c-37.088,56.912-34.527,130.934,6.36,188.93l7.492-5.314c-38.811-55.051-41.134-124.708-6.121-178.435
				c29.972-45.992,82.706-73.053,139.897-73.253C-926.37,624.414-929.218,621.384-932.144,618.431z"/>
		</g>
		<path style="fill:#487B74;" d="M-868.248,728.135c-8.297,21.169-14.084,56.81-15.876,97.792
			c-7.077-6.554-14.862-9.984-22.756-10.025c-16.196,0.047-31.444,14.317-41.193,38.552c-8.697-11.477-19.073-17.646-29.711-17.665
			c-14.648,0.04-28.599,11.725-38.384,32.149l-7.967-26.947l-11.587,40.216l-26.384-89.234l-31.201,108.281l-12.016-40.649
			l-14.85,51.539l-159.369,22.801c0.823,1.103,1.655,2.199,2.497,3.287l149.019,1.17l-2.765,9.594l51.433-0.569l-2.432-8.227
			l22.957-0.254l6.46,0.051l-5.3,18.396l29.91-0.331c2.683,19.231,8.459,36.449,16.544,49.317
			c90.853-34.972,150.837-122.226,150.952-219.578C-860.366,767.652-863.048,747.6-868.248,728.135L-868.248,728.135z"/>
		<path style="fill:#83A6A4;" d="M-1330.675,802.922c4.707,72.921,42.986,139.53,103.621,180.31
			c5.559-7.86,9.529-18.423,11.362-30.23l20.326,0.201l-3.602-11.199l4.372-0.031l15.617,0.156l-1.652,5.009l34.952,0.347
			l-1.879-5.84l117.67-0.829l-123.008-15.768l-10.09-31.375l-8.166,24.745l-21.202-65.921l-17.929,54.326l-7.874-24.483
			l-5.414,16.406c-6.649-12.434-16.129-19.548-26.083-19.573c-7.229,0.011-14.279,3.767-20.19,10.754
			c-6.625-14.753-16.986-23.44-27.991-23.469c-5.365,0.025-10.655,2.113-15.465,6.104
			C-1314.986,837.963-1321.818,810.583-1330.675,802.922L-1330.675,802.922z"/>
		<path style="fill:#193D3A;" d="M-996.174,877.33l-20.462,63.622h-1.499l-7.407-22.447l-7.22,22.447h-241.978
			c15.443,18.027,33.522,33.617,53.625,46.241h250.195c36.941-23.095,66.754-55.982,86.126-95.005
			c-1.947-0.577-3.92-0.878-5.897-0.898c-11.006,0.028-21.368,8.715-27.993,23.469c-5.91-6.987-12.961-10.742-20.19-10.754
			c-9.953,0.025-19.433,7.138-26.083,19.571l-5.414-16.404l-7.874,24.481L-996.174,877.33L-996.174,877.33z"/>
		<path style="fill:#21663C;" d="M-959.816,912.964l-23.79,56.13l-9.162-21.07l-12.912,30.469h-228
			c40.084,29.077,88.311,44.783,137.83,44.888c64.322-0.034,125.834-26.367,170.255-72.887l-5.271-12.121l-8.835,20.846
			L-959.816,912.964L-959.816,912.964z"/>
		
			<radialGradient id="SVGID_1_" cx="-2580.1086" cy="430.0495" r="35.9374" gradientTransform="matrix(1 0 0 -1 1351.85 1051.177)" gradientUnits="userSpaceOnUse">
			<stop  offset="0" style="stop-color:#FCD116"/>
			<stop  offset="1" style="stop-color:#FCD116;stop-opacity:0"/>
		</radialGradient>
		<path style="fill:url(#SVGID_1_);" d="M-1217.999,586.702c-16.852,10.141-32.367,22.353-46.184,36.35
			c0.116,2.395,0.472,4.772,1.062,7.096c4.984,19.228,24.612,30.774,43.84,25.789c0,0,0,0,0,0
			c19.227-4.985,30.772-24.613,25.787-43.84C-1196.662,599.931-1205.954,590.302-1217.999,586.702z"/>
		<path style="fill:#FFFFFF;" d="M-1229.482,633.522l20.731,12.843C-1210.781,639.468-1219.328,634.173-1229.482,633.522z
			 M-1208.75,646.365l5.046-3.126l11.807,7.315c-1.092-3.681-4.097-7.025-8.443-9.399l12.321-7.634
			c-6.211,0.399-12.021,2.566-16.01,5.972c-2.691-0.981-5.616-1.587-8.599-1.782l6.438,3.988
			C-1207.399,643.162-1208.264,644.738-1208.75,646.365L-1208.75,646.365z M-1191.897,650.555l20.731-12.843
			C-1181.319,638.362-1189.866,643.657-1191.897,650.555z"/>
		<path style="opacity:0.15;fill:#3B3C3D;enable-background:new    ;" d="M-1095.835,552.219
			c-100.477,0-187.657,63.428-220.308,152.767c38.425-82.459,123.46-139.274,220.278-139.274
			c96.821,0,181.885,57.434,220.308,139.896C-908.201,616.269-995.358,552.219-1095.835,552.219L-1095.835,552.219z"/>
	</g>
</g>
<g>
</g>
<g>
</g>
<g>
</g>
<g>
</g>
<g>
</g>
<g>
</g>
<g>
</g>
<g>
</g>
<g>
</g>
<g>
</g>
<g>
</g>
<g>
</g>
<g>
</g>
<g>
</g>
<g>
</g>
</svg>
